<svg xmlns="http://www.w3.org/2000/svg" width="512" height="512" shape-rendering="geometricPrecision" text-rendering="geometricPrecision" image-rendering="optimizeQuality" fill-rule="evenodd" clip-rule="evenodd"><path d="M390.5-.5h28c52 10 83 41 93 93v28c-3.234 20.473-11.401 38.806-24.5 55L341.5 321c-32.736 25.344-68.736 31.344-108 18-15.054-6.06-28.221-14.893-39.5-26.5-7.909-15.943-3.742-27.443 12.5-34.5a31.317 31.317 0 0 1 14 1 218.192 218.192 0 0 0 20 15c23.256 12.031 45.923 11.031 68-3A14855.707 14855.707 0 0 0 454 146.5c19.789-28.184 19.122-55.85-2-83-27.436-25.272-56.603-27.44-87.5-6.5a4580.712 4580.712 0 0 1-81 80c-15.369 6.432-26.202 1.932-32.5-13.5-1.209-6.386-.209-12.386 3-18L336.5 23c16.032-12.52 34.032-20.353 54-23.5z" opacity=".972"/><path d="M120.5 511.5h-28c-52-10-83-41-93-93v-28c3.234-20.473 11.4-38.806 24.5-55L157.5 202c35.354-27.021 73.687-32.021 115-15a123.096 123.096 0 0 1 27 18c8.015 6.712 10.848 15.212 8.5 25.5-5.827 12.994-15.66 17.494-29.5 13.5l-22-16c-22.749-10.917-44.749-9.583-66 4A12498.327 12498.327 0 0 0 57 364.5c-20.046 28.771-19.046 56.771 3 84 25.364 23.003 52.864 25.836 82.5 8.5l73-71c18.761-6.793 29.761-.46 33 19 .054 4.505-1.113 8.672-3.5 12.5L175.5 487c-16.194 13.099-34.527 21.266-55 24.5z" opacity=".973"/></svg>