<svg xmlns="http://www.w3.org/2000/svg" width="19" height="19"><path d="M1.11 3.516a.42.42 0 0 0-.208.433c.02.145.141.274 2.743 2.852L6.363 9.5l-2.676 2.664c-1.468 1.461-2.69 2.7-2.714 2.742a.5.5 0 0 0 .011.422c.114.223.094.219 2.11.219 1.011 0 1.875-.012 1.922-.031.093-.036 5.601-5.614 5.714-5.79a.43.43 0 0 0 0-.453c-.113-.175-5.62-5.753-5.714-5.789-.047-.02-.922-.035-1.946-.035-1.656.004-1.875.008-1.96.067Zm6.077 3.39C8.57 8.316 9.704 9.48 9.704 9.5c0 .02-1.133 1.184-2.515 2.594l-2.52 2.562H2.453l2.465-2.449c1.805-1.8 2.473-2.488 2.504-2.582a.317.317 0 0 0 .004-.246c-.028-.082-.781-.856-2.516-2.578L2.43 4.344l1.12-.004h1.118Zm0 0" style="stroke:none;fill-rule:nonzero;fill:#000;fill-opacity:1"/><path d="M8.418 3.512c-.203.105-.281.422-.148.605.03.055.93.953 1.992 2.004l2.672 2.645.742.738-2.723 2.7-2.715 2.694v.188c0 .105.028.223.059.27.133.19.129.19 2.101.19 1.004 0 1.868-.007 1.91-.019.047-.011 1.36-1.32 2.922-2.91 2.153-2.191 2.84-2.918 2.86-3.004a.553.553 0 0 0 0-.226c-.02-.086-.707-.813-2.86-3.004-1.562-1.59-2.875-2.899-2.921-2.91-.043-.012-.918-.024-1.938-.02-1.57 0-1.871.008-1.953.059Zm6.078 3.398c1.387 1.41 2.52 2.574 2.52 2.59 0 .016-1.133 1.18-2.52 2.59l-2.52 2.566H9.743L12.22 12.2c2.648-2.62 2.586-2.547 2.511-2.828-.023-.082-.734-.805-2.511-2.57L9.742 4.344l1.117-.004h1.118Zm0 0" style="stroke:none;fill-rule:nonzero;fill:#000;fill-opacity:1"/></svg>