<svg xmlns="http://www.w3.org/2000/svg" xmlns:xlink="http://www.w3.org/1999/xlink" width="25" height="25"><defs><clipPath id="b"><path d="M0 0h25v25H0z"/></clipPath><clipPath id="c"><path d="M0 0h25v25H0z"/></clipPath><mask id="e"><g filter="url(#a)"><path d="M0 0h25v25H0z" style="fill:#000;fill-opacity:.972549;stroke:none"/></g></mask><mask id="g"><g filter="url(#a)"><path d="M0 0h25v25H0z" style="fill:#000;fill-opacity:.972549;stroke:none"/></g></mask><g id="d" clip-path="url(#b)"><path d="M19.066-.023h1.368c2.539.488 4.054 2 4.543 4.539v1.367c-.16 1-.559 1.894-1.196 2.687l-7.105 7.102c-1.598 1.238-3.356 1.531-5.274.883a5.586 5.586 0 0 1-1.93-1.297c-.386-.778-.183-1.34.61-1.684.23-.035.465-.02.684.051.312.262.636.504.976.73 1.137.586 2.242.54 3.32-.144a672.548 672.548 0 0 0 7.106-7.059c.965-1.375.934-2.726-.098-4.05-1.34-1.235-2.765-1.34-4.273-.32-1.3 1.32-2.621 2.62-3.953 3.91-.75.312-1.281.093-1.586-.66a1.232 1.232 0 0 1 .144-.88l4.028-4.027a5.635 5.635 0 0 1 2.636-1.148Zm0 0" style="stroke:none;fill-rule:evenodd;fill:#000;fill-opacity:1"/></g><g id="f" clip-path="url(#c)"><path d="M5.883 24.977H4.516c-2.54-.489-4.051-2.004-4.54-4.543v-1.368c.157-1 .555-1.894 1.196-2.683l6.52-6.52c1.726-1.32 3.597-1.562 5.613-.73.476.23.922.527 1.32.875.39.328.527.746.414 1.246-.285.637-.766.855-1.441.66l-1.075-.781c-1.109-.531-2.183-.469-3.222.195a635.828 635.828 0 0 0-6.516 6.469c-.98 1.406-.933 2.773.145 4.101 1.238 1.125 2.582 1.262 4.027.415l3.566-3.465c.915-.332 1.454-.024 1.61.925.004.223-.055.426-.172.614L8.57 23.78a5.648 5.648 0 0 1-2.688 1.196Zm0 0" style="stroke:none;fill-rule:evenodd;fill:#000;fill-opacity:1"/></g><filter id="a" width="100%" height="100%" x="0%" y="0%" filterUnits="objectBoundingBox"><feColorMatrix in="SourceGraphic" values="0 0 0 0 1 0 0 0 0 1 0 0 0 0 1 0 0 0 1 0"/></filter></defs><use xlink:href="#d" mask="url(#e)"/><use xlink:href="#f" mask="url(#g)"/></svg>