<?xml version="1.0" encoding="UTF-8"?>
<!DOCTYPE svg PUBLIC "-//W3C//DTD SVG 1.1//EN" "http://www.w3.org/Graphics/SVG/1.1/DTD/svg11.dtd">
<svg xmlns="http://www.w3.org/2000/svg" version="1.1" width="512px" height="512px" style="shape-rendering:geometricPrecision; text-rendering:geometricPrecision; image-rendering:optimizeQuality; fill-rule:evenodd; clip-rule:evenodd" xmlns:xlink="http://www.w3.org/1999/xlink">
<g><path style="opacity:0.972" fill="#000000" d="M 390.5,-0.5 C 399.833,-0.5 409.167,-0.5 418.5,-0.5C 470.5,9.5 501.5,40.5 511.5,92.5C 511.5,101.833 511.5,111.167 511.5,120.5C 508.266,140.973 500.099,159.306 487,175.5C 438.5,224 390,272.5 341.5,321C 308.764,346.344 272.764,352.344 233.5,339C 218.446,332.94 205.279,324.107 194,312.5C 186.091,296.557 190.258,285.057 206.5,278C 211.239,277.274 215.905,277.607 220.5,279C 226.884,284.385 233.55,289.385 240.5,294C 263.756,306.031 286.423,305.031 308.5,291C 357.306,243.194 405.806,195.028 454,146.5C 473.789,118.316 473.122,90.6498 452,63.5C 424.564,38.2276 395.397,36.0609 364.5,57C 337.805,84.0282 310.805,110.695 283.5,137C 268.131,143.432 257.298,138.932 251,123.5C 249.791,117.114 250.791,111.114 254,105.5C 281.5,78 309,50.5 336.5,23C 352.532,10.48 370.532,2.64663 390.5,-0.5 Z"/></g>
<g><path style="opacity:0.973" fill="#000000" d="M 120.5,511.5 C 111.167,511.5 101.833,511.5 92.5,511.5C 40.5,501.5 9.5,470.5 -0.5,418.5C -0.5,409.167 -0.5,399.833 -0.5,390.5C 2.73388,370.027 10.9005,351.694 24,335.5C 68.5,291 113,246.5 157.5,202C 192.854,174.979 231.187,169.979 272.5,187C 282.316,191.823 291.316,197.823 299.5,205C 307.515,211.712 310.348,220.212 308,230.5C 302.173,243.494 292.34,247.994 278.5,244C 271.167,238.667 263.833,233.333 256.5,228C 233.751,217.083 211.751,218.417 190.5,232C 145.694,275.806 101.194,319.972 57,364.5C 36.9538,393.271 37.9538,421.271 60,448.5C 85.3641,471.503 112.864,474.336 142.5,457C 166.833,433.333 191.167,409.667 215.5,386C 234.261,379.207 245.261,385.54 248.5,405C 248.554,409.505 247.387,413.672 245,417.5C 221.833,440.667 198.667,463.833 175.5,487C 159.306,500.099 140.973,508.266 120.5,511.5 Z"/></g>
</svg>
