<?xml version="1.0" encoding="UTF-8"?>
<!DOCTYPE svg PUBLIC "-//W3C//DTD SVG 1.1//EN" "http://www.w3.org/Graphics/SVG/1.1/DTD/svg11.dtd">
<svg xmlns="http://www.w3.org/2000/svg" version="1.1" width="512px" height="512px" style="shape-rendering:geometricPrecision; text-rendering:geometricPrecision; image-rendering:optimizeQuality; fill-rule:evenodd; clip-rule:evenodd" xmlns:xlink="http://www.w3.org/1999/xlink">
<g><path style="opacity:0.983" fill="#000002" d="M 511.5,128.5 C 511.5,129.5 511.5,130.5 511.5,131.5C 475.679,161.588 440.012,191.922 404.5,222.5C 403.501,205.513 403.167,188.513 403.5,171.5C 369.248,168.086 339.248,177.586 313.5,200C 300.965,210.867 289.465,222.701 279,235.5C 254.762,267.742 229.762,299.408 204,330.5C 185.89,350.292 165.724,367.458 143.5,382C 121.263,395.19 97.263,403.19 71.5,406C 47.5023,406.5 23.5023,406.667 -0.5,406.5C -0.5,382.5 -0.5,358.5 -0.5,334.5C 22.1923,334.871 44.859,334.371 67.5,333C 90.6652,328.584 110.999,318.584 128.5,303C 135.333,296.167 142.167,289.333 149,282.5C 177.047,248.122 204.713,213.455 232,178.5C 254.413,152.073 280.913,130.906 311.5,115C 340.79,102.062 371.456,96.5623 403.5,98.5C 403.333,78.1639 403.5,57.8306 404,37.5C 439.725,68.0668 475.559,98.4001 511.5,128.5 Z"/></g>
<g><path style="opacity:0.98" fill="#000002" d="M -0.5,103.5 C 20.1694,103.333 40.836,103.5 61.5,104C 108.939,107.392 149.272,125.892 182.5,159.5C 167.858,178.643 153.024,197.643 138,216.5C 121.608,199.459 102.108,187.292 79.5,180C 73.8926,178.677 68.226,177.677 62.5,177C 41.5026,176.5 20.5026,176.333 -0.5,176.5C -0.5,152.167 -0.5,127.833 -0.5,103.5 Z"/></g>
<g><path style="opacity:0.979" fill="#000002" d="M 511.5,379.5 C 511.5,380.5 511.5,381.5 511.5,382.5C 475.559,412.6 439.725,442.933 404,473.5C 403.5,452.836 403.333,432.169 403.5,411.5C 343.215,415.341 292.548,395.341 251.5,351.5C 266.881,332.787 281.881,313.787 296.5,294.5C 311.218,310.686 328.552,323.186 348.5,332C 366.303,338.181 384.636,340.681 403.5,339.5C 403.167,322.487 403.501,305.487 404.5,288.5C 440.012,319.078 475.679,349.412 511.5,379.5 Z"/></g>
</svg>
