<svg xmlns="http://www.w3.org/2000/svg" xmlns:xlink="http://www.w3.org/1999/xlink" width="25" height="25"><defs><clipPath id="b"><path d="M0 0h25v25H0z"/></clipPath><clipPath id="c"><path d="M0 0h25v25H0z"/></clipPath><clipPath id="d"><path d="M0 0h25v25H0z"/></clipPath><mask id="f"><g filter="url(#a)"><path d="M0 0h25v25H0z" style="fill:#000;fill-opacity:.984314;stroke:none"/></g></mask><mask id="h"><g filter="url(#a)"><path d="M0 0h25v25H0z" style="fill:#000;fill-opacity:.980392;stroke:none"/></g></mask><mask id="j"><g filter="url(#a)"><path d="M0 0h25v25H0z" style="fill:#000;fill-opacity:.980392;stroke:none"/></g></mask><g id="e" clip-path="url(#b)"><path d="M24.977 6.273v.149a560.492 560.492 0 0 0-5.227 4.441 33.05 33.05 0 0 1-.047-2.488c-1.672-.168-3.137.297-4.394 1.39a13.84 13.84 0 0 0-1.684 1.735 123.13 123.13 0 0 1-3.664 4.637 15.356 15.356 0 0 1-2.953 2.515 8.64 8.64 0 0 1-3.516 1.172 131.85 131.85 0 0 1-3.515.024v-3.516a40.95 40.95 0 0 0 3.32-.074 6.142 6.142 0 0 0 2.976-1.461c.336-.336.668-.668 1-1.004a281.393 281.393 0 0 0 4.055-5.078 12.698 12.698 0 0 1 3.883-3.098 9.532 9.532 0 0 1 4.492-.808c-.008-.993 0-1.985.024-2.977a619.078 619.078 0 0 0 5.25 4.441Zm0 0" style="stroke:none;fill-rule:evenodd;fill:#000002;fill-opacity:1"/></g><g id="g" clip-path="url(#c)"><path d="M-.023 5.055c1.007-.008 2.015 0 3.027.023 2.316.164 4.285 1.07 5.906 2.711-.715.934-1.437 1.863-2.172 2.781a6.805 6.805 0 0 0-2.855-1.78 7.415 7.415 0 0 0-.832-.15C2.027 8.618 1 8.61-.023 8.618V5.055Zm0 0" style="stroke:none;fill-rule:evenodd;fill:#000002;fill-opacity:1"/></g><g id="i" clip-path="url(#d)"><path d="M24.977 18.531v.145a701.788 701.788 0 0 0-5.25 4.445 97.867 97.867 0 0 1-.024-3.027c-2.945.187-5.418-.79-7.422-2.93a88.07 88.07 0 0 0 2.196-2.785 7.457 7.457 0 0 0 2.539 1.832c.87.3 1.765.426 2.687.367-.015-.832 0-1.66.047-2.492a560.934 560.934 0 0 0 5.227 4.445Zm0 0" style="stroke:none;fill-rule:evenodd;fill:#000002;fill-opacity:1"/></g><filter id="a" width="100%" height="100%" x="0%" y="0%" filterUnits="objectBoundingBox"><feColorMatrix in="SourceGraphic" values="0 0 0 0 1 0 0 0 0 1 0 0 0 0 1 0 0 0 1 0"/></filter></defs><use xlink:href="#e" mask="url(#f)"/><use xlink:href="#g" mask="url(#h)"/><use xlink:href="#i" mask="url(#j)"/></svg>