<svg xmlns="http://www.w3.org/2000/svg" width="25" height="25"><path d="M6.617 2.867a1.248 1.248 0 0 1 1.766 0l3.75 3.75c.476.488.469 1.27-.016 1.75a1.243 1.243 0 0 1-1.75.016L8.75 6.766v9.484c0 .691-.559 1.25-1.25 1.25s-1.25-.559-1.25-1.25V6.766L4.633 8.383a1.243 1.243 0 0 1-1.75-.016 1.243 1.243 0 0 1-.016-1.75ZM16.25 8.75c0-.691.559-1.25 1.25-1.25s1.25.559 1.25 1.25v9.48l1.617-1.613a1.247 1.247 0 0 1 1.766 0 1.247 1.247 0 0 1 0 1.766l-3.75 3.75a1.248 1.248 0 0 1-1.766 0l-3.75-3.75a1.248 1.248 0 1 1 1.766-1.766l1.617 1.613Zm0 0" style="stroke:none;fill-rule:nonzero;fill:#5c5f62;fill-opacity:1"/></svg>