<svg aria-hidden="true" style="position: absolute; width: 0; height: 0; overflow: hidden;" version="1.1" xmlns="http://www.w3.org/2000/svg" xmlns:xlink="http://www.w3.org/1999/xlink">
<defs>
<symbol id="link" width="525" height="25" shape-rendering="geometricPrecision" text-rendering="geometricPrecision" image-rendering="optimizeQuality" fill-rule="evenodd" clip-rule="evenodd">
<path d="M390.5-.5h28c52 10 83 41 93 93v28c-3.234 20.473-11.401 38.806-24.5 55L341.5 321c-32.736 25.344-68.736 31.344-108 18-15.054-6.06-28.221-14.893-39.5-26.5-7.909-15.943-3.742-27.443 12.5-34.5a31.317 31.317 0 0 1 14 1 218.192 218.192 0 0 0 20 15c23.256 12.031 45.923 11.031 68-3A14855.707 14855.707 0 0 0 454 146.5c19.789-28.184 19.122-55.85-2-83-27.436-25.272-56.603-27.44-87.5-6.5a4580.712 4580.712 0 0 1-81 80c-15.369 6.432-26.202 1.932-32.5-13.5-1.209-6.386-.209-12.386 3-18L336.5 23c16.032-12.52 34.032-20.353 54-23.5z" opacity=".972"/>
<path d="M120.5 511.5h-28c-52-10-83-41-93-93v-28c3.234-20.473 11.4-38.806 24.5-55L157.5 202c35.354-27.021 73.687-32.021 115-15a123.096 123.096 0 0 1 27 18c8.015 6.712 10.848 15.212 8.5 25.5-5.827 12.994-15.66 17.494-29.5 13.5l-22-16c-22.749-10.917-44.749-9.583-66 4A12498.327 12498.327 0 0 0 57 364.5c-20.046 28.771-19.046 56.771 3 84 25.364 23.003 52.864 25.836 82.5 8.5l73-71c18.761-6.793 29.761-.46 33 19 .054 4.505-1.113 8.672-3.5 12.5L175.5 487c-16.194 13.099-34.527 21.266-55 24.5z" opacity=".973"/>
</symbol>
<symbol id="shuffle-arrows" width="25" height="25" shape-rendering="geometricPrecision" text-rendering="geometricPrecision" image-rendering="optimizeQuality" fill-rule="evenodd" clip-rule="evenodd">
<path d="M511.5 128.5v3a11468.674 11468.674 0 0 0-107 91 651.277 651.277 0 0 1-1-51c-34.252-3.414-64.252 6.086-90 28.5a289.068 289.068 0 0 0-34.5 35.5 2558.748 2558.748 0 0 1-75 95c-18.11 19.792-38.276 36.958-60.5 51.5-22.237 13.19-46.237 21.19-72 24-23.998.5-47.998.667-72 .5v-72a885.205 885.205 0 0 0 68-1.5c23.165-4.416 43.499-14.416 61-30l20.5-20.5a6186.82 6186.82 0 0 0 83-104c22.413-26.427 48.913-47.594 79.5-63.5 29.29-12.938 59.956-18.438 92-16.5-.167-20.336 0-40.67.5-61a13333.72 13333.72 0 0 0 107.5 91z" opacity=".983"/>
<path d="M-.5 103.5c20.67-.167 41.336 0 62 .5 47.439 3.392 87.772 21.892 121 55.5a3653.565 3653.565 0 0 1-44.5 57c-16.392-17.041-35.892-29.208-58.5-36.5a151.366 151.366 0 0 0-17-3c-20.997-.5-41.997-.667-63-.5v-73z" opacity=".98"/>
<path d="M511.5 379.5v3a13331.668 13331.668 0 0 0-107.5 91c-.5-20.664-.667-41.331-.5-62-60.285 3.841-110.952-16.159-152-60a1843.417 1843.417 0 0 0 45-57c14.718 16.186 32.052 28.686 52 37.5 17.803 6.181 36.136 8.681 55 7.5a651.277 651.277 0 0 1 1-51 11468.674 11468.674 0 0 0 107 91z" opacity=".979"/>
</symbol>
</defs>
</svg>