<svg xmlns="http://www.w3.org/2000/svg" width="512" height="512" shape-rendering="geometricPrecision" text-rendering="geometricPrecision" image-rendering="optimizeQuality" fill-rule="evenodd" clip-rule="evenodd"><path fill="#000002" d="M511.5 128.5v3a11468.674 11468.674 0 0 0-107 91 651.277 651.277 0 0 1-1-51c-34.252-3.414-64.252 6.086-90 28.5a289.068 289.068 0 0 0-34.5 35.5 2558.748 2558.748 0 0 1-75 95c-18.11 19.792-38.276 36.958-60.5 51.5-22.237 13.19-46.237 21.19-72 24-23.998.5-47.998.667-72 .5v-72a885.205 885.205 0 0 0 68-1.5c23.165-4.416 43.499-14.416 61-30l20.5-20.5a6186.82 6186.82 0 0 0 83-104c22.413-26.427 48.913-47.594 79.5-63.5 29.29-12.938 59.956-18.438 92-16.5-.167-20.336 0-40.67.5-61a13333.72 13333.72 0 0 0 107.5 91z" opacity=".983"/><path fill="#000002" d="M-.5 103.5c20.67-.167 41.336 0 62 .5 47.439 3.392 87.772 21.892 121 55.5a3653.565 3653.565 0 0 1-44.5 57c-16.392-17.041-35.892-29.208-58.5-36.5a151.366 151.366 0 0 0-17-3c-20.997-.5-41.997-.667-63-.5v-73z" opacity=".98"/><path fill="#000002" d="M511.5 379.5v3a13331.668 13331.668 0 0 0-107.5 91c-.5-20.664-.667-41.331-.5-62-60.285 3.841-110.952-16.159-152-60a1843.417 1843.417 0 0 0 45-57c14.718 16.186 32.052 28.686 52 37.5 17.803 6.181 36.136 8.681 55 7.5a651.277 651.277 0 0 1 1-51 11468.674 11468.674 0 0 0 107 91z" opacity=".979"/></svg>