<?xml version="1.0" encoding="UTF-8"?>
<svg xmlns="http://www.w3.org/2000/svg" xmlns:xlink="http://www.w3.org/1999/xlink" width="25px" height="25px" viewBox="0 0 25 25" version="1.1">
<defs>
<filter id="alpha" filterUnits="objectBoundingBox" x="0%" y="0%" width="100%" height="100%">
  <feColorMatrix type="matrix" in="SourceGraphic" values="0 0 0 0 1 0 0 0 0 1 0 0 0 0 1 0 0 0 1 0"/>
</filter>
<mask id="mask0">
  <g filter="url(#alpha)">
<rect x="0" y="0" width="25" height="25" style="fill:rgb(0%,0%,0%);fill-opacity:0.972549;stroke:none;"/>
  </g>
</mask>
<clipPath id="clip1">
  <rect x="0" y="0" width="25" height="25"/>
</clipPath>
<g id="surface5" clip-path="url(#clip1)">
<path style=" stroke:none;fill-rule:evenodd;fill:rgb(0%,0%,0%);fill-opacity:1;" d="M 19.066406 -0.0234375 L 20.433594 -0.0234375 C 22.972656 0.464844 24.488281 1.976562 24.976562 4.515625 L 24.976562 5.882812 C 24.816406 6.882812 24.417969 7.777344 23.78125 8.570312 L 16.675781 15.671875 C 15.078125 16.910156 13.320312 17.203125 11.402344 16.554688 C 10.667969 16.257812 10.023438 15.824219 9.472656 15.257812 C 9.085938 14.480469 9.289062 13.917969 10.082031 13.574219 C 10.3125 13.539062 10.546875 13.554688 10.765625 13.625 C 11.078125 13.886719 11.402344 14.128906 11.742188 14.355469 C 12.878906 14.941406 13.984375 14.894531 15.0625 14.210938 C 17.449219 11.875 19.816406 9.523438 22.167969 7.152344 C 23.132812 5.777344 23.101562 4.425781 22.070312 3.101562 C 20.730469 1.867188 19.304688 1.761719 17.796875 2.78125 C 16.496094 4.101562 15.175781 5.402344 13.84375 6.691406 C 13.09375 7.003906 12.5625 6.785156 12.257812 6.03125 C 12.195312 5.71875 12.246094 5.425781 12.402344 5.152344 L 16.429688 1.125 C 17.214844 0.511719 18.09375 0.128906 19.066406 -0.0234375 Z M 19.066406 -0.0234375 "/>
</g>
<mask id="mask1">
  <g filter="url(#alpha)">
<rect x="0" y="0" width="25" height="25" style="fill:rgb(0%,0%,0%);fill-opacity:0.972549;stroke:none;"/>
  </g>
</mask>
<clipPath id="clip2">
  <rect x="0" y="0" width="25" height="25"/>
</clipPath>
<g id="surface8" clip-path="url(#clip2)">
<path style=" stroke:none;fill-rule:evenodd;fill:rgb(0%,0%,0%);fill-opacity:1;" d="M 5.882812 24.976562 L 4.515625 24.976562 C 1.976562 24.488281 0.464844 22.972656 -0.0234375 20.433594 L -0.0234375 19.066406 C 0.132812 18.066406 0.53125 17.171875 1.171875 16.382812 L 7.691406 9.863281 C 9.417969 8.542969 11.289062 8.300781 13.304688 9.132812 C 13.78125 9.363281 14.226562 9.660156 14.625 10.007812 C 15.015625 10.335938 15.152344 10.753906 15.039062 11.253906 C 14.753906 11.890625 14.273438 12.109375 13.597656 11.914062 L 12.523438 11.132812 C 11.414062 10.601562 10.339844 10.664062 9.300781 11.328125 C 7.113281 13.46875 4.941406 15.625 2.785156 17.796875 C 1.804688 19.203125 1.851562 20.570312 2.929688 21.898438 C 4.167969 23.023438 5.511719 23.160156 6.957031 22.3125 L 10.523438 18.847656 C 11.4375 18.515625 11.976562 18.824219 12.132812 19.773438 C 12.136719 19.996094 12.078125 20.199219 11.960938 20.386719 L 8.570312 23.78125 C 7.777344 24.417969 6.882812 24.816406 5.882812 24.976562 Z M 5.882812 24.976562 "/>
</g>
</defs>
<g id="surface1">
<use xlink:href="#surface5" mask="url(#mask0)"/>
<use xlink:href="#surface8" mask="url(#mask1)"/>
</g>
</svg>
