<?xml version="1.0" encoding="UTF-8"?>
<svg xmlns="http://www.w3.org/2000/svg" xmlns:xlink="http://www.w3.org/1999/xlink" width="25px" height="25px" viewBox="0 0 25 25" version="1.1">
<defs>
<filter id="alpha" filterUnits="objectBoundingBox" x="0%" y="0%" width="100%" height="100%">
  <feColorMatrix type="matrix" in="SourceGraphic" values="0 0 0 0 1 0 0 0 0 1 0 0 0 0 1 0 0 0 1 0"/>
</filter>
<mask id="mask0">
  <g filter="url(#alpha)">
<rect x="0" y="0" width="25" height="25" style="fill:rgb(0%,0%,0%);fill-opacity:0.984314;stroke:none;"/>
  </g>
</mask>
<clipPath id="clip1">
  <rect x="0" y="0" width="25" height="25"/>
</clipPath>
<g id="surface5" clip-path="url(#clip1)">
<path style=" stroke:none;fill-rule:evenodd;fill:rgb(0%,0%,0.784314%);fill-opacity:1;" d="M 24.976562 6.273438 C 24.976562 6.324219 24.976562 6.371094 24.976562 6.421875 C 23.226562 7.890625 21.484375 9.371094 19.75 10.863281 C 19.703125 10.035156 19.6875 9.203125 19.703125 8.375 C 18.03125 8.207031 16.566406 8.671875 15.308594 9.765625 C 14.695312 10.296875 14.132812 10.875 13.625 11.5 C 12.441406 13.074219 11.21875 14.621094 9.960938 16.136719 C 9.078125 17.105469 8.09375 17.941406 7.007812 18.652344 C 5.921875 19.296875 4.75 19.6875 3.492188 19.824219 C 2.320312 19.847656 1.148438 19.855469 -0.0234375 19.847656 C -0.0234375 18.675781 -0.0234375 17.503906 -0.0234375 16.332031 C 1.082031 16.351562 2.191406 16.328125 3.296875 16.257812 C 4.425781 16.042969 5.417969 15.554688 6.273438 14.796875 C 6.609375 14.460938 6.941406 14.128906 7.273438 13.792969 C 8.644531 12.117188 9.996094 10.421875 11.328125 8.714844 C 12.421875 7.425781 13.714844 6.390625 15.210938 5.617188 C 16.640625 4.984375 18.136719 4.714844 19.703125 4.808594 C 19.695312 3.816406 19.703125 2.824219 19.726562 1.832031 C 21.472656 3.324219 23.21875 4.804688 24.976562 6.273438 Z M 24.976562 6.273438 "/>
</g>
<mask id="mask1">
  <g filter="url(#alpha)">
<rect x="0" y="0" width="25" height="25" style="fill:rgb(0%,0%,0%);fill-opacity:0.980392;stroke:none;"/>
  </g>
</mask>
<clipPath id="clip2">
  <rect x="0" y="0" width="25" height="25"/>
</clipPath>
<g id="surface8" clip-path="url(#clip2)">
<path style=" stroke:none;fill-rule:evenodd;fill:rgb(0%,0%,0.784314%);fill-opacity:1;" d="M -0.0234375 5.054688 C 0.984375 5.046875 1.992188 5.054688 3.003906 5.078125 C 5.320312 5.242188 7.289062 6.148438 8.910156 7.789062 C 8.195312 8.722656 7.472656 9.652344 6.738281 10.570312 C 5.9375 9.738281 4.984375 9.144531 3.882812 8.789062 C 3.609375 8.722656 3.332031 8.675781 3.050781 8.640625 C 2.027344 8.617188 1 8.609375 -0.0234375 8.617188 C -0.0234375 7.429688 -0.0234375 6.242188 -0.0234375 5.054688 Z M -0.0234375 5.054688 "/>
</g>
<mask id="mask2">
  <g filter="url(#alpha)">
<rect x="0" y="0" width="25" height="25" style="fill:rgb(0%,0%,0%);fill-opacity:0.980392;stroke:none;"/>
  </g>
</mask>
<clipPath id="clip3">
  <rect x="0" y="0" width="25" height="25"/>
</clipPath>
<g id="surface11" clip-path="url(#clip3)">
<path style=" stroke:none;fill-rule:evenodd;fill:rgb(0%,0%,0.784314%);fill-opacity:1;" d="M 24.976562 18.53125 C 24.976562 18.578125 24.976562 18.628906 24.976562 18.675781 C 23.21875 20.148438 21.472656 21.628906 19.726562 23.121094 C 19.703125 22.109375 19.695312 21.101562 19.703125 20.09375 C 16.757812 20.28125 14.285156 19.304688 12.28125 17.164062 C 13.03125 16.25 13.765625 15.320312 14.476562 14.378906 C 15.195312 15.171875 16.042969 15.78125 17.015625 16.210938 C 17.886719 16.511719 18.78125 16.636719 19.703125 16.578125 C 19.6875 15.746094 19.703125 14.917969 19.75 14.085938 C 21.484375 15.578125 23.226562 17.0625 24.976562 18.53125 Z M 24.976562 18.53125 "/>
</g>
</defs>
<g id="surface1">
<use xlink:href="#surface5" mask="url(#mask0)"/>
<use xlink:href="#surface8" mask="url(#mask1)"/>
<use xlink:href="#surface11" mask="url(#mask2)"/>
</g>
</svg>
